<svg id="SvgjsSvg1006" width="1851.0000610351562" height="1137.8542175292969" xmlns="http://www.w3.org/2000/svg" version="1.1" xmlns:xlink="http://www.w3.org/1999/xlink" xmlns:svgjs="http://svgjs.com/svgjs"><defs id="SvgjsDefs1007"><pattern id="SvgjsPattern1030" x="0" y="0" width="40" height="76" patternUnits="userSpaceOnUse"><image id="SvgjsImage1031" xlink:href="https://processon.com/assets/images/designer/network/iphone.svg" width="40" height="76" preserveAspectRatio="none" crossOrigin="anonymous" x="0" y="0"></image></pattern><pattern id="SvgjsPattern1036" x="0" y="0" width="76" height="64" patternUnits="userSpaceOnUse"><image id="SvgjsImage1037" xlink:href="https://processon.com/assets/images/designer/network/pc.svg" width="76" height="64" preserveAspectRatio="none" crossOrigin="anonymous" x="0" y="0"></image></pattern><pattern id="SvgjsPattern1042" x="0" y="0" width="76" height="43" patternUnits="userSpaceOnUse"><image id="SvgjsImage1043" xlink:href="https://processon.com/assets/images/designer/network/macbook.svg" width="76" height="43" preserveAspectRatio="none" crossOrigin="anonymous" x="0" y="0"></image></pattern><pattern id="SvgjsPattern1048" x="0" y="0" width="76" height="76" patternUnits="userSpaceOnUse"><image id="SvgjsImage1049" xlink:href="https://processon.com/assets/images/designer/network_aliyun/Network/SLB.svg" width="76" height="76" preserveAspectRatio="none" crossOrigin="anonymous" x="0" y="0"></image></pattern><marker id="SvgjsMarker1056" markerWidth="16" markerHeight="12" refX="16" refY="6" viewBox="0 0 16 12" orient="auto" markerUnits="userSpaceOnUse" stroke-dasharray="0,0"><path id="SvgjsPath1057" d="M0,2 L14,6 L0,11 L0,2" fill="#323232" stroke="#323232" stroke-width="2"></path></marker><pattern id="SvgjsPattern1064" x="0" y="0" width="76" height="76" patternUnits="userSpaceOnUse"><image id="SvgjsImage1065" xlink:href="https://processon.com/assets/images/designer/network_aliyun/InternetMiddleware/EDAS.svg" width="76" height="76" preserveAspectRatio="none" crossOrigin="anonymous" x="0" y="0"></image></pattern><pattern id="SvgjsPattern1072" x="0" y="0" width="76" height="76" patternUnits="userSpaceOnUse"><image id="SvgjsImage1073" xlink:href="https://processon.com/assets/images/designer/network_aliyun/InternetMiddleware/EDAS.svg" width="76" height="76" preserveAspectRatio="none" crossOrigin="anonymous" x="0" y="0"></image></pattern><pattern id="SvgjsPattern1080" x="0" y="0" width="76" height="76" patternUnits="userSpaceOnUse"><image id="SvgjsImage1081" xlink:href="https://processon.com/assets/images/designer/network_aliyun/InternetMiddleware/EDAS.svg" width="76" height="76" preserveAspectRatio="none" crossOrigin="anonymous" x="0" y="0"></image></pattern><marker id="SvgjsMarker1088" markerWidth="16" markerHeight="12" refX="16" refY="6" viewBox="0 0 16 12" orient="auto" markerUnits="userSpaceOnUse" stroke-dasharray="0,0"><path id="SvgjsPath1089" d="M0,2 L14,6 L0,11 L0,2" fill="#323232" stroke="#323232" stroke-width="2"></path></marker><pattern id="SvgjsPattern1092" x="0" y="0" width="76" height="76" patternUnits="userSpaceOnUse"><image id="SvgjsImage1093" xlink:href="https://processon.com/assets/images/designer/network_aliyun/LargeScaleCalculation/BCS.svg" width="76" height="76" preserveAspectRatio="none" crossOrigin="anonymous" x="0" y="0"></image></pattern><marker id="SvgjsMarker1102" markerWidth="16" markerHeight="12" refX="16" refY="6" viewBox="0 0 16 12" orient="auto" markerUnits="userSpaceOnUse" stroke-dasharray="0,0"><path id="SvgjsPath1103" d="M0,2 L14,6 L0,11 L0,2" fill="#323232" stroke="#323232" stroke-width="2"></path></marker><marker id="SvgjsMarker1106" markerWidth="16" markerHeight="12" refX="16" refY="6" viewBox="0 0 16 12" orient="auto" markerUnits="userSpaceOnUse" stroke-dasharray="0,0"><path id="SvgjsPath1107" d="M0,2 L14,6 L0,11 L0,2" fill="#323232" stroke="#323232" stroke-width="2"></path></marker><pattern id="SvgjsPattern1110" x="0" y="0" width="76" height="76" patternUnits="userSpaceOnUse"><image id="SvgjsImage1111" xlink:href="https://processon.com/assets/images/designer/network_aliyun/Database/datamanagement.svg" width="76" height="76" preserveAspectRatio="none" crossOrigin="anonymous" x="0" y="0"></image></pattern><pattern id="SvgjsPattern1120" x="0" y="0" width="76" height="76" patternUnits="userSpaceOnUse"><image id="SvgjsImage1121" xlink:href="https://processon.com/assets/images/designer/network_aliyun/Database/KVStore.svg" width="76" height="76" preserveAspectRatio="none" crossOrigin="anonymous" x="0" y="0"></image></pattern><pattern id="SvgjsPattern1130" x="0" y="0" width="76" height="76" patternUnits="userSpaceOnUse"><image id="SvgjsImage1131" xlink:href="https://processon.com/assets/images/designer/network_aliyun/InternetMiddleware/DRDS.svg" width="76" height="76" preserveAspectRatio="none" crossOrigin="anonymous" x="0" y="0"></image></pattern><pattern id="SvgjsPattern1138" x="0" y="0" width="76" height="76" patternUnits="userSpaceOnUse"><image id="SvgjsImage1139" xlink:href="https://processon.com/assets/images/designer/network_aliyun/InternetMiddleware/DRDS.svg" width="76" height="76" preserveAspectRatio="none" crossOrigin="anonymous" x="0" y="0"></image></pattern><pattern id="SvgjsPattern1146" x="0" y="0" width="76" height="76" patternUnits="userSpaceOnUse"><image id="SvgjsImage1147" xlink:href="https://processon.com/assets/images/designer/network_aliyun/InternetMiddleware/DRDS.svg" width="76" height="76" preserveAspectRatio="none" crossOrigin="anonymous" x="0" y="0"></image></pattern><marker id="SvgjsMarker1154" markerWidth="16" markerHeight="12" refX="16" refY="6" viewBox="0 0 16 12" orient="auto" markerUnits="userSpaceOnUse" stroke-dasharray="0,0"><path id="SvgjsPath1155" d="M0,2 L14,6 L0,11 L0,2" fill="#323232" stroke="#323232" stroke-width="2"></path></marker><marker id="SvgjsMarker1166" markerWidth="16" markerHeight="12" refX="0" refY="6" viewBox="0 0 16 12" orient="auto" markerUnits="userSpaceOnUse" stroke-dasharray="0,0"><path id="SvgjsPath1167" d="M15,1.5 L2,6 L15,10.5" fill="#323232" stroke="#323232" stroke-width="2"></path></marker><marker id="SvgjsMarker1168" markerWidth="16" markerHeight="12" refX="16" refY="6" viewBox="0 0 16 12" orient="auto" markerUnits="userSpaceOnUse" stroke-dasharray="0,0"><path id="SvgjsPath1169" d="M0,2 L14,6 L0,11 L0,2" fill="#323232" stroke="#323232" stroke-width="2"></path></marker><pattern id="SvgjsPattern1190" x="0" y="0" width="76" height="76" patternUnits="userSpaceOnUse"><image id="SvgjsImage1191" xlink:href="https://processon.com/assets/images/designer/network_aliyun/Security/ATS.svg" width="76" height="76" preserveAspectRatio="none" crossOrigin="anonymous" x="0" y="0"></image></pattern><marker id="SvgjsMarker1198" markerWidth="16" markerHeight="12" refX="0" refY="6" viewBox="0 0 16 12" orient="auto" markerUnits="userSpaceOnUse" stroke-dasharray="0,0"><path id="SvgjsPath1199" d="M15,1.5 L2,6 L15,10.5" fill="#323232" stroke="#323232" stroke-width="2"></path></marker><marker id="SvgjsMarker1200" markerWidth="16" markerHeight="12" refX="16" refY="6" viewBox="0 0 16 12" orient="auto" markerUnits="userSpaceOnUse" stroke-dasharray="0,0"><path id="SvgjsPath1201" d="M0,2 L14,6 L0,11 L0,2" fill="#323232" stroke="#323232" stroke-width="2"></path></marker><marker id="SvgjsMarker1250" markerWidth="16" markerHeight="12" refX="16" refY="6" viewBox="0 0 16 12" orient="auto" markerUnits="userSpaceOnUse" stroke-dasharray="0,0"><path id="SvgjsPath1251" d="M0,2 L14,6 L0,11 L0,2" fill="#323232" stroke="#323232" stroke-width="2"></path></marker><marker id="SvgjsMarker1266" markerWidth="16" markerHeight="12" refX="0" refY="6" viewBox="0 0 16 12" orient="auto" markerUnits="userSpaceOnUse" stroke-dasharray="0,0"><path id="SvgjsPath1267" d="M15,1.5 L2,6 L15,10.5" fill="#323232" stroke="#323232" stroke-width="2"></path></marker><marker id="SvgjsMarker1268" markerWidth="16" markerHeight="12" refX="16" refY="6" viewBox="0 0 16 12" orient="auto" markerUnits="userSpaceOnUse" stroke-dasharray="0,0"><path id="SvgjsPath1269" d="M0,2 L14,6 L0,11 L0,2" fill="#323232" stroke="#323232" stroke-width="2"></path></marker><pattern id="SvgjsPattern1292" x="0" y="0" width="76" height="76" patternUnits="userSpaceOnUse"><image id="SvgjsImage1293" xlink:href="https://processon.com/assets/images/designer/network_aliyun/Security/AYD.svg" width="76" height="76" preserveAspectRatio="none" crossOrigin="anonymous" x="0" y="0"></image></pattern><marker id="SvgjsMarker1300" markerWidth="16" markerHeight="12" refX="16" refY="6" viewBox="0 0 16 12" orient="auto" markerUnits="userSpaceOnUse" stroke-dasharray="0,0"><path id="SvgjsPath1301" d="M0,2 L14,6 L0,11 L0,2" fill="#323232" stroke="#323232" stroke-width="2"></path></marker><pattern id="SvgjsPattern1316" x="0" y="0" width="76" height="52" patternUnits="userSpaceOnUse"><image id="SvgjsImage1317" xlink:href="https://processon.com/assets/images/designer/network/firewall.svg" width="76" height="52" preserveAspectRatio="none" crossOrigin="anonymous" x="0" y="0"></image></pattern><marker id="SvgjsMarker1322" markerWidth="16" markerHeight="12" refX="16" refY="6" viewBox="0 0 16 12" orient="auto" markerUnits="userSpaceOnUse" stroke-dasharray="0,0"><path id="SvgjsPath1323" d="M0,2 L14,6 L0,11 L0,2" fill="#323232" stroke="#323232" stroke-width="2"></path></marker><marker id="SvgjsMarker1344" markerWidth="16" markerHeight="12" refX="16" refY="6" viewBox="0 0 16 12" orient="auto" markerUnits="userSpaceOnUse" stroke-dasharray="0,0"><path id="SvgjsPath1345" d="M0,2 L14,6 L0,11 L0,2" fill="#323232" stroke="#323232" stroke-width="2"></path></marker><marker id="SvgjsMarker1348" markerWidth="16" markerHeight="12" refX="16" refY="6" viewBox="0 0 16 12" orient="auto" markerUnits="userSpaceOnUse" stroke-dasharray="0,0"><path id="SvgjsPath1349" d="M0,2 L14,6 L0,11 L0,2" fill="#323232" stroke="#323232" stroke-width="2"></path></marker><marker id="SvgjsMarker1352" markerWidth="16" markerHeight="12" refX="16" refY="6" viewBox="0 0 16 12" orient="auto" markerUnits="userSpaceOnUse" stroke-dasharray="0,0"><path id="SvgjsPath1353" d="M0,2 L14,6 L0,11 L0,2" fill="#323232" stroke="#323232" stroke-width="2"></path></marker><marker id="SvgjsMarker1356" markerWidth="16" markerHeight="12" refX="16" refY="6" viewBox="0 0 16 12" orient="auto" markerUnits="userSpaceOnUse" stroke-dasharray="0,0"><path id="SvgjsPath1357" d="M0,2 L14,6 L0,11 L0,2" fill="#323232" stroke="#323232" stroke-width="2"></path></marker><marker id="SvgjsMarker1360" markerWidth="16" markerHeight="12" refX="16" refY="6" viewBox="0 0 16 12" orient="auto" markerUnits="userSpaceOnUse" stroke-dasharray="0,0"><path id="SvgjsPath1361" d="M0,2 L14,6 L0,11 L0,2" fill="#323232" stroke="#323232" stroke-width="2"></path></marker><pattern id="SvgjsPattern1370" x="0" y="0" width="76" height="76" patternUnits="userSpaceOnUse"><image id="SvgjsImage1371" xlink:href="https://processon.com/assets/images/designer/network_aliyun/LargeScaleCalculation/ODPS.svg" width="76" height="76" preserveAspectRatio="none" crossOrigin="anonymous" x="0" y="0"></image></pattern><pattern id="SvgjsPattern1378" x="0" y="0" width="76" height="76" patternUnits="userSpaceOnUse"><image id="SvgjsImage1379" xlink:href="https://processon.com/assets/images/designer/network_aliyun/ApplicationServices/SLS.svg" width="76" height="76" preserveAspectRatio="none" crossOrigin="anonymous" x="0" y="0"></image></pattern><marker id="SvgjsMarker1386" markerWidth="16" markerHeight="12" refX="16" refY="6" viewBox="0 0 16 12" orient="auto" markerUnits="userSpaceOnUse" stroke-dasharray="0,0"><path id="SvgjsPath1387" d="M0,2 L14,6 L0,11 L0,2" fill="#323232" stroke="#323232" stroke-width="2"></path></marker><marker id="SvgjsMarker1394" markerWidth="16" markerHeight="12" refX="16" refY="6" viewBox="0 0 16 12" orient="auto" markerUnits="userSpaceOnUse" stroke-dasharray="0,0"><path id="SvgjsPath1395" d="M0,2 L14,6 L0,11 L0,2" fill="#323232" stroke="#323232" stroke-width="2"></path></marker></defs><g id="SvgjsG1008" transform="translate(660.796696286958,685.3789463447281)"><path id="SvgjsPath1009" d="M 0 4Q 0 0 4 0L 188.66666666666788 0Q 192.66666666666788 0 192.66666666666788 4L 192.66666666666788 231.22839506172852Q 192.66666666666788 235.22839506172852 188.66666666666788 235.22839506172852L 4 235.22839506172852Q 0 235.22839506172852 0 231.22839506172852Z" stroke-dasharray="3,4" stroke="rgba(50,50,50,1)" stroke-width="2" fill-opacity="1" fill="#ffffff"></path><g id="SvgjsG1010"><text id="SvgjsText1011" font-family="微软雅黑" text-anchor="middle" font-size="13px" width="183px" fill="#323232" font-weight="400" align="middle" anchor="middle" family="微软雅黑" size="13px" weight="400" font-style="" opacity="1" y="7.852028218694893" transform="rotate(0)"></text></g></g><g id="SvgjsG1012" transform="translate(1516.4835390946525,312.6667073567716)"><path id="SvgjsPath1013" d="M 0 4Q 0 0 4 0L 140.10699588477382 0Q 144.10699588477382 0 144.10699588477382 4L 144.10699588477382 364.99999999999915Q 144.10699588477382 368.99999999999915 140.10699588477382 368.99999999999915L 4 368.99999999999915Q 0 368.99999999999915 0 364.99999999999915Z" stroke-dasharray="3,4" stroke="rgba(50,50,50,1)" stroke-width="2" fill-opacity="1" fill="#ffffff"></path><g id="SvgjsG1014"><text id="SvgjsText1015" font-family="微软雅黑" text-anchor="middle" font-size="13px" width="135px" fill="#323232" font-weight="400" align="middle" anchor="middle" family="微软雅黑" size="13px" weight="400" font-style="" opacity="1" y="17.407142857142794" transform="rotate(0)"></text></g></g><g id="SvgjsG1016" transform="translate(352.4948118148591,625.000040690104)"><path id="SvgjsPath1017" d="M 0 4Q 0 0 4 0L 171.7727266414738 0Q 175.7727266414738 0 175.7727266414738 4L 175.7727266414738 294.0814041445816Q 175.7727266414738 298.0814041445816 171.7727266414738 298.0814041445816L 4 298.0814041445816Q 0 298.0814041445816 0 294.0814041445816Z" stroke-dasharray="3,4" stroke="rgba(50,50,50,1)" stroke-width="2" fill-opacity="1" fill="#ffffff"></path><g id="SvgjsG1018"><text id="SvgjsText1019" font-family="微软雅黑" text-anchor="middle" font-size="13px" width="166px" fill="#323232" font-weight="400" align="middle" anchor="middle" family="微软雅黑" size="13px" weight="400" font-style="" opacity="1" y="12.341528867470114" transform="rotate(0)"></text></g></g><g id="SvgjsG1020" transform="translate(670.9999999999994,398.58204885281566)"><path id="SvgjsPath1021" d="M 0 4Q 0 0 4 0L 192.66666666666697 0Q 196.66666666666697 0 196.66666666666697 4L 196.66666666666697 198.39362224593344Q 196.66666666666697 202.39362224593344 192.66666666666697 202.39362224593344L 4 202.39362224593344Q 0 202.39362224593344 0 198.39362224593344Z" stroke-dasharray="3,4" stroke="rgba(50,50,50,1)" stroke-width="2" fill-opacity="1" fill="#ffffff"></path><g id="SvgjsG1022"><text id="SvgjsText1023" font-family="微软雅黑" text-anchor="middle" font-size="13px" width="187px" fill="#323232" font-weight="400" align="middle" anchor="middle" family="微软雅黑" size="13px" weight="400" font-style="" opacity="1" y="5.50668730328096" transform="rotate(0)"></text></g></g><g id="SvgjsG1024" transform="translate(1063.000000000001,311.41670735677087)"><path id="SvgjsPath1025" d="M 0 4Q 0 0 4 0L 148.71428571428328 0Q 152.71428571428328 0 152.71428571428328 4L 152.71428571428328 362.5Q 152.71428571428328 366.5 148.71428571428328 366.5L 4 366.5Q 0 366.5 0 362.5Z" stroke-dasharray="3,4" stroke="rgba(50,50,50,1)" stroke-width="2" fill-opacity="1" fill="#ffffff"></path><g id="SvgjsG1026"><text id="SvgjsText1027" font-family="微软雅黑" text-anchor="middle" font-size="13px" width="143px" fill="#323232" font-weight="400" align="middle" anchor="middle" family="微软雅黑" size="13px" weight="400" font-style="" opacity="1" y="17.228571428571428" transform="rotate(0)"></text></g></g><g id="SvgjsG1028" transform="translate(43,316.3333740234375)"><path id="SvgjsPath1029" d="M 0 0L 40 0L 40 76L 0 76Z" stroke="none" fill="url(#SvgjsPattern1030)"></path><g id="SvgjsG1032"><text id="SvgjsText1033" font-family="微软雅黑" text-anchor="middle" font-size="13px" width="80px" fill="#323232" font-weight="400" align="middle" anchor="middle" family="微软雅黑" size="13px" weight="400" font-style="" opacity="1" y="81.05" transform="rotate(0)"></text></g></g><g id="SvgjsG1034" transform="translate(25,462.16670735677104)"><path id="SvgjsPath1035" d="M 0 0L 76 0L 76 64L 0 64Z" stroke="none" fill="url(#SvgjsPattern1036)"></path><g id="SvgjsG1038"><text id="SvgjsText1039" font-family="微软雅黑" text-anchor="middle" font-size="13px" width="116px" fill="#323232" font-weight="400" align="middle" anchor="middle" family="微软雅黑" size="13px" weight="400" font-style="" opacity="1" y="69.05" transform="rotate(0)"></text></g></g><g id="SvgjsG1040" transform="translate(25,615.8333740234375)"><path id="SvgjsPath1041" d="M 0 0L 76 0L 76 43L 0 43Z" stroke="none" fill="url(#SvgjsPattern1042)"></path><g id="SvgjsG1044"><text id="SvgjsText1045" font-family="微软雅黑" text-anchor="middle" font-size="13px" width="116px" fill="#323232" font-weight="400" align="middle" anchor="middle" family="微软雅黑" size="13px" weight="400" font-style="" opacity="1" y="48.05" transform="rotate(0)"></text></g></g><g id="SvgjsG1046" transform="translate(401,456.73079819658204)"><path id="SvgjsPath1047" d="M 0 0L 76 0L 76 76L 0 76Z" stroke="none" fill="url(#SvgjsPattern1048)"></path><g id="SvgjsG1050"><text id="SvgjsText1051" font-family="微软雅黑" text-anchor="middle" font-size="13px" width="116px" fill="#323232" font-weight="400" align="middle" anchor="middle" family="微软雅黑" size="13px" weight="400" font-style="" opacity="1" y="81.05" transform="rotate(0)"><tspan id="SvgjsTspan1052" dy="16" x="38"><tspan id="SvgjsTspan1053" style="text-decoration:;">Nginx + UI</tspan></tspan></text></g></g><g id="SvgjsG1054"><path id="SvgjsPath1055" d="M101 494.50004069010413L157.25 494.50004069010413L157.25 494.50004069010413L213.5 494.50004069010413" stroke="#323232" stroke-width="2" fill="none" marker-end="url(#SvgjsMarker1056)"></path><rect id="SvgjsRect1058" width="32" height="16" x="141.25" y="486.50004069010413" fill="#ffffff"></rect><text id="SvgjsText1059" font-family="微软雅黑" text-anchor="middle" font-size="13px" width="32px" fill="#323232" font-weight="400" align="top" anchor="middle" family="微软雅黑" size="13px" weight="400" font-style="" opacity="1" y="484.55004069010414" transform="rotate(0)"><tspan id="SvgjsTspan1060" dy="16" x="157.25"><tspan id="SvgjsTspan1061" style="text-decoration:;">https</tspan></tspan></text></g><g id="SvgjsG1062" transform="translate(1109.849402312349,566.3333740234375)"><path id="SvgjsPath1063" d="M 0 0L 76 0L 76 76L 0 76Z" stroke="none" fill="url(#SvgjsPattern1064)"></path><g id="SvgjsG1066"><text id="SvgjsText1067" font-family="微软雅黑" text-anchor="middle" font-size="13px" width="116px" fill="#323232" font-weight="400" align="middle" anchor="middle" family="微软雅黑" size="13px" weight="400" font-style="" opacity="1" y="81.05" transform="rotate(0)"><tspan id="SvgjsTspan1068" dy="16" x="38"><tspan id="SvgjsTspan1069" style="text-decoration:;">企业服务</tspan></tspan></text></g></g><g id="SvgjsG1070" transform="translate(1105.5000000000011,449.1587055277818)"><path id="SvgjsPath1071" d="M 0 0L 76 0L 76 76L 0 76Z" stroke="none" fill="url(#SvgjsPattern1072)"></path><g id="SvgjsG1074"><text id="SvgjsText1075" font-family="微软雅黑" text-anchor="middle" font-size="13px" width="116px" fill="#323232" font-weight="400" align="middle" anchor="middle" family="微软雅黑" size="13px" weight="400" font-style="" opacity="1" y="81.05" transform="rotate(0)"><tspan id="SvgjsTspan1076" dy="16" x="38"><tspan id="SvgjsTspan1077" style="text-decoration:;">银行服务</tspan></tspan></text></g></g><g id="SvgjsG1078" transform="translate(1102.403662333711,337.3333740234375)"><path id="SvgjsPath1079" d="M 0 0L 76 0L 76 76L 0 76Z" stroke="none" fill="url(#SvgjsPattern1080)"></path><g id="SvgjsG1082"><text id="SvgjsText1083" font-family="微软雅黑" text-anchor="middle" font-size="13px" width="116px" fill="#323232" font-weight="400" align="middle" anchor="middle" family="微软雅黑" size="13px" weight="400" font-style="" opacity="1" y="81.05" transform="rotate(0)"><tspan id="SvgjsTspan1084" dy="16" x="38"><tspan id="SvgjsTspan1085" style="text-decoration:;">政府服务</tspan></tspan></text></g></g><g id="SvgjsG1086"><path id="SvgjsPath1087" d="M477 510.66045830936787L572.4696275248108 510.66045830936787L572.4696275248108 510.66045830936787L667.9392550496216 510.66045830936787" stroke="#323232" stroke-width="2" fill="none" marker-end="url(#SvgjsMarker1088)"></path></g><g id="SvgjsG1090" transform="translate(566,259.66670735677087)"><path id="SvgjsPath1091" d="M 0 0L 76 0L 76 76L 0 76Z" stroke="none" fill="url(#SvgjsPattern1092)"></path><g id="SvgjsG1094"><text id="SvgjsText1095" font-family="微软雅黑" text-anchor="middle" font-size="13px" width="116px" fill="#323232" font-weight="400" align="middle" anchor="middle" family="微软雅黑" size="13px" weight="400" font-style="" opacity="1" y="73.05" transform="rotate(0)"><tspan id="SvgjsTspan1096" dy="16" x="38"><tspan id="SvgjsTspan1097" style="text-decoration:;">Swagger</tspan></tspan><tspan id="SvgjsTspan1098" dy="16" x="38"><tspan id="SvgjsTspan1099" style="text-decoration:;">文档管理</tspan></tspan></text></g></g><g id="SvgjsG1100"><path id="SvgjsPath1101" d="M439 456.73079819658204L439 297.6667073567706L566 297.6667073567706" stroke-dasharray="8,5" stroke="#323232" stroke-width="2" fill="none" marker-end="url(#SvgjsMarker1102)"></path></g><g id="SvgjsG1104"><path id="SvgjsPath1105" d="M439.0000000000002 456.73079819658204L439.0000000000002 135.33337402343733L566 135.33337402343733" stroke-dasharray="8,5" stroke="#323232" stroke-width="2" fill="none" marker-end="url(#SvgjsMarker1106)"></path></g><g id="SvgjsG1108" transform="translate(566,97.3333740234375)"><path id="SvgjsPath1109" d="M 0 0L 76 0L 76 76L 0 76Z" stroke="none" fill="url(#SvgjsPattern1110)"></path><g id="SvgjsG1112"><text id="SvgjsText1113" font-family="微软雅黑" text-anchor="middle" font-size="13px" width="116px" fill="#323232" font-weight="400" align="middle" anchor="middle" family="微软雅黑" size="13px" weight="400" font-style="" opacity="1" y="73.05" transform="rotate(0)"><tspan id="SvgjsTspan1114" dy="16" x="38"><tspan id="SvgjsTspan1115" style="text-decoration:;">Druid</tspan></tspan><tspan id="SvgjsTspan1116" dy="16" x="38"><tspan id="SvgjsTspan1117" style="text-decoration:;">数据库监控</tspan></tspan></text></g></g><g id="SvgjsG1118" transform="translate(857.5066300868808,180.33337402343744)"><path id="SvgjsPath1119" d="M 0 0L 76 0L 76 76L 0 76Z" stroke="none" fill="url(#SvgjsPattern1120)"></path><g id="SvgjsG1122"><text id="SvgjsText1123" font-family="微软雅黑" text-anchor="middle" font-size="13px" width="116px" fill="#323232" font-weight="400" align="middle" anchor="middle" family="微软雅黑" size="13px" weight="400" font-style="" opacity="1" y="73.05" transform="rotate(0)"><tspan id="SvgjsTspan1124" dy="16" x="38"><tspan id="SvgjsTspan1125" style="text-decoration:;">Redis</tspan></tspan><tspan id="SvgjsTspan1126" dy="16" x="38"><tspan id="SvgjsTspan1127" style="text-decoration:;">缓存服务器</tspan></tspan></text></g></g><g id="SvgjsG1128" transform="translate(1560,458.9109028554242)"><path id="SvgjsPath1129" d="M 0 0L 76 0L 76 76L 0 76Z" stroke="none" fill="url(#SvgjsPattern1130)"></path><g id="SvgjsG1132"><text id="SvgjsText1133" font-family="微软雅黑" text-anchor="middle" font-size="13px" width="116px" fill="#323232" font-weight="400" align="middle" anchor="middle" family="微软雅黑" size="13px" weight="400" font-style="" opacity="1" y="81.05" transform="rotate(0)"><tspan id="SvgjsTspan1134" dy="16" x="38"><tspan id="SvgjsTspan1135" style="text-decoration:;">从库</tspan></tspan></text></g></g><g id="SvgjsG1136" transform="translate(1560,572.7495199361545)"><path id="SvgjsPath1137" d="M 0 0L 76 0L 76 76L 0 76Z" stroke="none" fill="url(#SvgjsPattern1138)"></path><g id="SvgjsG1140"><text id="SvgjsText1141" font-family="微软雅黑" text-anchor="middle" font-size="13px" width="116px" fill="#323232" font-weight="400" align="middle" anchor="middle" family="微软雅黑" size="13px" weight="400" font-style="" opacity="1" y="81.05" transform="rotate(0)"><tspan id="SvgjsTspan1142" dy="16" x="38"><tspan id="SvgjsTspan1143" style="text-decoration:;">其他库</tspan></tspan></text></g></g><g id="SvgjsG1144" transform="translate(1554.4156378600849,337.3333740234375)"><path id="SvgjsPath1145" d="M 0 0L 76 0L 76 76L 0 76Z" stroke="none" fill="url(#SvgjsPattern1146)"></path><g id="SvgjsG1148"><text id="SvgjsText1149" font-family="微软雅黑" text-anchor="middle" font-size="13px" width="116px" fill="#323232" font-weight="400" align="middle" anchor="middle" family="微软雅黑" size="13px" weight="400" font-style="" opacity="1" y="81.05" transform="rotate(0)"><tspan id="SvgjsTspan1150" dy="16" x="38"><tspan id="SvgjsTspan1151" style="text-decoration:;">主库</tspan></tspan></text></g></g><g id="SvgjsG1152"><path id="SvgjsPath1153" d="M1215.7142857142842 494.666707356771L1516.4835390946525 497.1667073567712" stroke="#323232" stroke-width="2" fill="none" marker-end="url(#SvgjsMarker1154)"></path></g><g id="SvgjsG1156" transform="translate(1686.000000000001,364.8333740234375)"><path id="SvgjsPath1157" d="M 0 47.5C 0 -15.833333333333334 140 -15.833333333333334 140 47.5Q 137.2 93.1 70 95Q 46.666666666666664 95 23.333333333333332 85.5L 0 95L 16.380000000000003 81.41499999999999Q 0 66.5 0 47.5" stroke="rgba(50,50,50,1)" stroke-width="2" fill-opacity="1" fill="#ffffff"></path><g id="SvgjsG1158"><text id="SvgjsText1159" font-family="微软雅黑" text-anchor="middle" font-size="13px" width="120px" fill="#323232" font-weight="400" align="middle" anchor="middle" family="微软雅黑" size="13px" weight="400" font-style="" opacity="1" y="29.55" transform="rotate(0)"><tspan id="SvgjsTspan1160" dy="16" x="70"><tspan id="SvgjsTspan1161" style="text-decoration:;">支持读写分离，主从</tspan></tspan><tspan id="SvgjsTspan1162" dy="16" x="70"><tspan id="SvgjsTspan1163" style="text-decoration:;">数据库，动态数据源</tspan></tspan></text></g></g><g id="SvgjsG1164"><path id="SvgjsPath1165" d="M1064.3333333333333 378.33337402343744L998.9199817101071 378.33337402343744L998.9199817101071 218.3333740234374L933.5066300868808 218.3333740234374" stroke="#323232" stroke-width="2" fill="none" marker-start="url(#SvgjsMarker1166)" marker-end="url(#SvgjsMarker1168)"></path></g><g id="SvgjsG1170" transform="translate(565.4854334051649,1017.8571835472476)"><path id="SvgjsPath1171" d="M 0 0L 579.3809523809524 0L 579.3809523809524 95L 0 95Z" stroke="rgba(50,50,50,1)" stroke-width="2" fill-opacity="1" fill="#ffffff"></path><g id="SvgjsG1172"><text id="SvgjsText1173" font-family="微软雅黑" text-anchor="start" font-size="13px" width="560px" fill="#323232" font-weight="400" align="middle" anchor="start" family="微软雅黑" size="13px" weight="400" font-style="" opacity="1" y="13.55" transform="rotate(0)"><tspan id="SvgjsTspan1174" dy="16" x="10"><tspan id="SvgjsTspan1175" style="text-decoration:;">前端技术：Vue + Webpack + AntDesignVue</tspan></tspan><tspan id="SvgjsTspan1176" dy="16" x="10"><tspan id="SvgjsTspan1177" style="text-decoration:;">后端技术：SpringBoot + MybatisPlus + Shiro + Jwt + SwaggerUI</tspan></tspan><tspan id="SvgjsTspan1178" dy="16" x="10"><tspan id="SvgjsTspan1179" style="text-decoration:;">其他技术：Druid + Logback + Quartz + Lombok + FastJson + Junit + DynamicDatasource</tspan></tspan><tspan id="SvgjsTspan1180" dy="16" x="10"><tspan id="SvgjsTspan1181" style="text-decoration:;">开发环境：Nginx + Tomcat + Redis + MySql + Maven + Java8</tspan></tspan></text></g></g><g id="SvgjsG1182" transform="translate(622.1666666666661,25.00004069010417)"><path id="SvgjsPath1183" d="M 0 0L 299.6666666666679 0L 299.6666666666679 52L 0 52Z" stroke="none" fill="none"></path><g id="SvgjsG1184"><text id="SvgjsText1185" font-family="微软雅黑" text-anchor="middle" font-size="35px" width="300px" fill="#323232" font-weight="700" align="middle" anchor="middle" family="微软雅黑" size="35px" weight="700" font-style="" opacity="1" y="-3.25" transform="rotate(0)"><tspan id="SvgjsTspan1186" dy="43" x="150"><tspan id="SvgjsTspan1187" style="text-decoration:;">大山开发平台</tspan></tspan></text></g></g><g id="SvgjsG1188" transform="translate(1102.403662333711,97.3333740234375)"><path id="SvgjsPath1189" d="M 0 0L 76 0L 76 76L 0 76Z" stroke="none" fill="url(#SvgjsPattern1190)"></path><g id="SvgjsG1192"><text id="SvgjsText1193" font-family="微软雅黑" text-anchor="middle" font-size="13px" width="116px" fill="#323232" font-weight="400" align="middle" anchor="middle" family="微软雅黑" size="13px" weight="400" font-style="" opacity="1" y="81.05" transform="rotate(0)"><tspan id="SvgjsTspan1194" dy="16" x="38"><tspan id="SvgjsTspan1195" style="text-decoration:;">对外接口</tspan></tspan></text></g></g><g id="SvgjsG1196"><path id="SvgjsPath1197" d="M1139.357142857143 311.41670735677087L1140.4036623337113 173.3333740234375" stroke="#323232" stroke-width="2" fill="none" marker-start="url(#SvgjsMarker1198)" marker-end="url(#SvgjsMarker1200)"></path><rect id="SvgjsRect1202" width="91" height="16" x="1094.380402595427" y="234.37504069010419" fill="#ffffff"></rect><text id="SvgjsText1203" font-family="微软雅黑" text-anchor="middle" font-size="13px" width="91px" fill="#323232" font-weight="400" align="top" anchor="middle" family="微软雅黑" size="13px" weight="400" font-style="" opacity="1" y="232.4250406901042" transform="rotate(0)"><tspan id="SvgjsTspan1204" dy="16" x="1139.880402595427"><tspan id="SvgjsTspan1205" style="text-decoration:;">与外部数据交互</tspan></tspan></text></g><g id="SvgjsG1206" transform="translate(1276,454.83337402343756)"><path id="SvgjsPath1207" d="M 0 0L 160 0L 160 43L 0 43Z" stroke="none" fill="none"></path><g id="SvgjsG1208"><text id="SvgjsText1209" font-family="微软雅黑" text-anchor="middle" font-size="15px" width="160px" fill="#323232" font-weight="400" align="middle" anchor="middle" family="微软雅黑" size="15px" weight="400" font-style="" opacity="1" y="9.75" transform="rotate(0)"><tspan id="SvgjsTspan1210" dy="18" x="80"><tspan id="SvgjsTspan1211" style="text-decoration:;">Druid数据库连接池</tspan></tspan></text></g></g><g id="SvgjsG1212" transform="translate(1240.1666666666667,495.48243666632766)"><path id="SvgjsPath1213" d="M 0 0L 231.66666666666674 0L 231.66666666666674 64L 0 64Z" stroke="none" fill="none"></path><g id="SvgjsG1214"><text id="SvgjsText1215" font-family="微软雅黑" text-anchor="middle" font-size="15px" width="232px" fill="#323232" font-weight="400" align="middle" anchor="middle" family="微软雅黑" size="15px" weight="400" font-style="" opacity="1" y="20.25" transform="rotate(0)"><tspan id="SvgjsTspan1216" dy="18" x="116"><tspan id="SvgjsTspan1217" style="text-decoration:;">DynamicDatasource动态数据源</tspan></tspan></text></g></g><g id="SvgjsG1218" transform="translate(370,783.8333740234375)"><path id="SvgjsPath1219" d="M 0 4Q 0 0 4 0L 136 0Q 140 0 140 4L 140 39Q 140 43 136 43L 4 43Q 0 43 0 39Z" stroke="rgba(50,50,50,1)" stroke-width="2" fill-opacity="1" fill="#99ccff"></path><g id="SvgjsG1220"><text id="SvgjsText1221" font-family="微软雅黑" text-anchor="middle" font-size="15px" width="120px" fill="#323232" font-weight="400" align="middle" anchor="middle" family="微软雅黑" size="15px" weight="400" font-style="" opacity="1" y="9.75" transform="rotate(0)"><tspan id="SvgjsTspan1222" dy="18" x="70"><tspan id="SvgjsTspan1223" style="text-decoration:;">Vue</tspan></tspan></text></g></g><g id="SvgjsG1224" transform="translate(369.99999999999994,856.8333740234375)"><path id="SvgjsPath1225" d="M 0 4Q 0 0 4 0L 136 0Q 140 0 140 4L 140 39Q 140 43 136 43L 4 43Q 0 43 0 39Z" stroke="rgba(50,50,50,1)" stroke-width="2" fill-opacity="1" fill="#99ccff"></path><g id="SvgjsG1226"><text id="SvgjsText1227" font-family="微软雅黑" text-anchor="middle" font-size="15px" width="120px" fill="#323232" font-weight="400" align="middle" anchor="middle" family="微软雅黑" size="15px" weight="400" font-style="" opacity="1" y="9.75" transform="rotate(0)"><tspan id="SvgjsTspan1228" dy="18" x="70"><tspan id="SvgjsTspan1229" style="text-decoration:;">Ant Design Vue</tspan></tspan></text></g></g><g id="SvgjsG1230" transform="translate(369.99999999999994,709.8333740234375)"><path id="SvgjsPath1231" d="M 0 4Q 0 0 4 0L 136 0Q 140 0 140 4L 140 39Q 140 43 136 43L 4 43Q 0 43 0 39Z" stroke="rgba(50,50,50,1)" stroke-width="2" fill-opacity="1" fill="#99ccff"></path><g id="SvgjsG1232"><text id="SvgjsText1233" font-family="微软雅黑" text-anchor="middle" font-size="15px" width="120px" fill="#323232" font-weight="400" align="middle" anchor="middle" family="微软雅黑" size="15px" weight="400" font-style="" opacity="1" y="9.75" transform="rotate(0)"><tspan id="SvgjsTspan1234" dy="18" x="70"><tspan id="SvgjsTspan1235" style="text-decoration:;">WebPack</tspan></tspan></text></g></g><g id="SvgjsG1236" transform="translate(1083,691.8333740234375)"><path id="SvgjsPath1237" d="M 0 0L 120 0L 120 43L 0 43Z" stroke="none" fill="none"></path><g id="SvgjsG1238"><text id="SvgjsText1239" font-family="微软雅黑" text-anchor="middle" font-size="15px" width="120px" fill="#323232" font-weight="400" align="middle" anchor="middle" family="微软雅黑" size="15px" weight="400" font-style="" opacity="1" y="9.75" transform="rotate(0)"><tspan id="SvgjsTspan1240" dy="18" x="60"><tspan id="SvgjsTspan1241" style="text-decoration:;">应用集群</tspan></tspan></text></g></g><g id="SvgjsG1242" transform="translate(1531,691.8333740234375)"><path id="SvgjsPath1243" d="M 0 0L 120 0L 120 43L 0 43Z" stroke="none" fill="none"></path><g id="SvgjsG1244"><text id="SvgjsText1245" font-family="微软雅黑" text-anchor="middle" font-size="15px" width="120px" fill="#323232" font-weight="400" align="middle" anchor="middle" family="微软雅黑" size="15px" weight="400" font-style="" opacity="1" y="9.75" transform="rotate(0)"><tspan id="SvgjsTspan1246" dy="18" x="60"><tspan id="SvgjsTspan1247" style="text-decoration:;">数据库集群</tspan></tspan></text></g></g><g id="SvgjsG1248"><path id="SvgjsPath1249" d="M864.6059217162885 494.66670735677087L963.8029608581446 494.66670735677087L963.8029608581446 494.66670735677087L1063.000000000001 494.66670735677087" stroke="#323232" stroke-width="2" fill="none" marker-end="url(#SvgjsMarker1250)"></path></g><g id="SvgjsG1252" transform="translate(707.4968863631062,615.8333740234375)"><path id="SvgjsPath1253" d="M 0 0L 120 0L 120 43L 0 43Z" stroke="none" fill="none"></path><g id="SvgjsG1254"><text id="SvgjsText1255" font-family="微软雅黑" text-anchor="middle" font-size="15px" width="120px" fill="#323232" font-weight="400" align="middle" anchor="middle" family="微软雅黑" size="15px" weight="400" font-style="" opacity="1" y="9.75" transform="rotate(0)"><tspan id="SvgjsTspan1256" dy="18" x="60"><tspan id="SvgjsTspan1257" style="text-decoration:;">权限认证</tspan></tspan></text></g></g><g id="SvgjsG1258" transform="translate(702,415.8889295789931)"><path id="SvgjsPath1259" d="M 0 4Q 0 0 4 0L 136 0Q 140 0 140 4L 140 39Q 140 43 136 43L 4 43Q 0 43 0 39Z" stroke="rgba(50,50,50,1)" stroke-width="2" fill-opacity="1" fill="#99ccff"></path><g id="SvgjsG1260"><text id="SvgjsText1261" font-family="微软雅黑" text-anchor="middle" font-size="15px" width="120px" fill="#323232" font-weight="400" align="middle" anchor="middle" family="微软雅黑" size="15px" weight="400" font-style="" opacity="1" y="9.75" transform="rotate(0)"><tspan id="SvgjsTspan1262" dy="18" x="70"><tspan id="SvgjsTspan1263" style="text-decoration:;">Shiro</tspan></tspan></text></g></g><g id="SvgjsG1264"><path id="SvgjsPath1265" d="M766.2725883829551 400.13656290047084L766.2725883829551 218.3333740234374L857.5066300868808 218.3333740234374" stroke="#323232" stroke-width="2" fill="none" marker-start="url(#SvgjsMarker1266)" marker-end="url(#SvgjsMarker1268)"></path><rect id="SvgjsRect1270" width="91" height="48" x="720.7725883829551" y="239.61794760999123" fill="#ffffff"></rect><text id="SvgjsText1271" font-family="微软雅黑" text-anchor="middle" font-size="13px" width="91px" fill="#323232" font-weight="400" align="top" anchor="middle" family="微软雅黑" size="13px" weight="400" font-style="" opacity="1" y="237.66794760999124" transform="rotate(0)"><tspan id="SvgjsTspan1272" dy="16" x="766.2725883829551"><tspan id="SvgjsTspan1273" style="text-decoration:;">缓存用户登录、</tspan></tspan><tspan id="SvgjsTspan1274" dy="16" x="766.2725883829551"><tspan id="SvgjsTspan1275" style="text-decoration:;">菜单权限、</tspan></tspan><tspan id="SvgjsTspan1276" dy="16" x="766.2725883829551"><tspan id="SvgjsTspan1277" style="text-decoration:;">数据权限等信息</tspan></tspan></text></g><g id="SvgjsG1278" transform="translate(702,479.8333740234375)"><path id="SvgjsPath1279" d="M 0 4Q 0 0 4 0L 136 0Q 140 0 140 4L 140 39Q 140 43 136 43L 4 43Q 0 43 0 39Z" stroke="rgba(50,50,50,1)" stroke-width="2" fill-opacity="1" fill="#99ccff"></path><g id="SvgjsG1280"><text id="SvgjsText1281" font-family="微软雅黑" text-anchor="middle" font-size="15px" width="120px" fill="#323232" font-weight="400" align="middle" anchor="middle" family="微软雅黑" size="15px" weight="400" font-style="" opacity="1" y="9.75" transform="rotate(0)"><tspan id="SvgjsTspan1282" dy="18" x="70"><tspan id="SvgjsTspan1283" style="text-decoration:;">JWT</tspan></tspan></text></g></g><g id="SvgjsG1284" transform="translate(702,543.821028344425)"><path id="SvgjsPath1285" d="M 0 4Q 0 0 4 0L 136 0Q 140 0 140 4L 140 39Q 140 43 136 43L 4 43Q 0 43 0 39Z" stroke="rgba(50,50,50,1)" stroke-width="2" fill-opacity="1" fill="#99ccff"></path><g id="SvgjsG1286"><text id="SvgjsText1287" font-family="微软雅黑" text-anchor="middle" font-size="15px" width="120px" fill="#323232" font-weight="400" align="middle" anchor="middle" family="微软雅黑" size="15px" weight="400" font-style="" opacity="1" y="9.75" transform="rotate(0)"><tspan id="SvgjsTspan1288" dy="18" x="70"><tspan id="SvgjsTspan1289" style="text-decoration:;">数据权限</tspan></tspan></text></g></g><g id="SvgjsG1290" transform="translate(1345.1666666666667,97.3333740234375)"><path id="SvgjsPath1291" d="M 0 0L 76 0L 76 76L 0 76Z" stroke="none" fill="url(#SvgjsPattern1292)"></path><g id="SvgjsG1294"><text id="SvgjsText1295" font-family="微软雅黑" text-anchor="middle" font-size="13px" width="116px" fill="#323232" font-weight="400" align="middle" anchor="middle" family="微软雅黑" size="13px" weight="400" font-style="" opacity="1" y="81.05" transform="rotate(0)"><tspan id="SvgjsTspan1296" dy="16" x="38"><tspan id="SvgjsTspan1297" style="text-decoration:;">外部接口</tspan></tspan></text></g></g><g id="SvgjsG1298"><path id="SvgjsPath1299" d="M1345.1666666666667 135.3333740234375L1278.9166666666665 135.3333740234375L1278.9166666666665 380.00004069010413L1212.6666666666665 380.00004069010413" stroke="#323232" stroke-width="2" fill="none" marker-end="url(#SvgjsMarker1300)"></path><rect id="SvgjsRect1302" width="78" height="16" x="1239.9166666666665" y="249.6667073567707" fill="#ffffff"></rect><text id="SvgjsText1303" font-family="微软雅黑" text-anchor="middle" font-size="13px" width="78px" fill="#323232" font-weight="400" align="top" anchor="middle" family="微软雅黑" size="13px" weight="400" font-style="" opacity="1" y="247.7167073567707" transform="rotate(0)"><tspan id="SvgjsTspan1304" dy="16" x="1278.9166666666665"><tspan id="SvgjsTspan1305" style="text-decoration:;">获取三方数据</tspan></tspan></text></g><g id="SvgjsG1306" transform="translate(509.3333333333329,454.8333740234375)"><path id="SvgjsPath1307" d="M 0 0L 120 0L 120 43L 0 43Z" stroke="none" fill="none"></path><g id="SvgjsG1308"><text id="SvgjsText1309" font-family="微软雅黑" text-anchor="middle" font-size="13px" width="120px" fill="#323232" font-weight="400" align="middle" anchor="middle" family="微软雅黑" size="13px" weight="400" font-style="" opacity="1" y="3.55" transform="rotate(0)"><tspan id="SvgjsTspan1310" dy="16" x="60"><tspan id="SvgjsTspan1311" style="text-decoration:;">POST、GET、</tspan></tspan><tspan id="SvgjsTspan1312" dy="16" x="60"><tspan id="SvgjsTspan1313" style="text-decoration:;">PUT、DELETE</tspan></tspan></text></g></g><g id="SvgjsG1314" transform="translate(213.5,468.5000406901041)"><path id="SvgjsPath1315" d="M 0 0L 76 0L 76 52L 0 52Z" stroke="none" fill="url(#SvgjsPattern1316)"></path><g id="SvgjsG1318"><text id="SvgjsText1319" font-family="微软雅黑" text-anchor="middle" font-size="13px" width="116px" fill="#323232" font-weight="400" align="middle" anchor="middle" family="微软雅黑" size="13px" weight="400" font-style="" opacity="1" y="57.05" transform="rotate(0)"></text></g></g><g id="SvgjsG1320"><path id="SvgjsPath1321" d="M289.5 494.7307981965821L345.25 494.7307981965821L345.25 494.7307981965821L401 494.7307981965821" stroke="#323232" stroke-width="2" fill="none" marker-end="url(#SvgjsMarker1322)"></path></g><g id="SvgjsG1324" transform="translate(694,783.8333740234375)"><path id="SvgjsPath1325" d="M 0 4Q 0 0 4 0L 136 0Q 140 0 140 4L 140 39Q 140 43 136 43L 4 43Q 0 43 0 39Z" stroke="rgba(50,50,50,1)" stroke-width="2" fill-opacity="1" fill="#99ccff"></path><g id="SvgjsG1326"><text id="SvgjsText1327" font-family="微软雅黑" text-anchor="middle" font-size="15px" width="120px" fill="#323232" font-weight="400" align="middle" anchor="middle" family="微软雅黑" size="15px" weight="400" font-style="" opacity="1" y="9.75" transform="rotate(0)"><tspan id="SvgjsTspan1328" dy="18" x="70"><tspan id="SvgjsTspan1329" style="text-decoration:;">Vue Router</tspan></tspan></text></g></g><g id="SvgjsG1330" transform="translate(694,856.8333740234375)"><path id="SvgjsPath1331" d="M 0 4Q 0 0 4 0L 136 0Q 140 0 140 4L 140 39Q 140 43 136 43L 4 43Q 0 43 0 39Z" stroke="rgba(50,50,50,1)" stroke-width="2" fill-opacity="1" fill="#99ccff"></path><g id="SvgjsG1332"><text id="SvgjsText1333" font-family="微软雅黑" text-anchor="middle" font-size="15px" width="120px" fill="#323232" font-weight="400" align="middle" anchor="middle" family="微软雅黑" size="15px" weight="400" font-style="" opacity="1" y="9.75" transform="rotate(0)"><tspan id="SvgjsTspan1334" dy="18" x="70"><tspan id="SvgjsTspan1335" style="text-decoration:;">Vuex</tspan></tspan></text></g></g><g id="SvgjsG1336" transform="translate(694,709.8333740234375)"><path id="SvgjsPath1337" d="M 0 4Q 0 0 4 0L 136 0Q 140 0 140 4L 140 39Q 140 43 136 43L 4 43Q 0 43 0 39Z" stroke="rgba(50,50,50,1)" stroke-width="2" fill-opacity="1" fill="#99ccff"></path><g id="SvgjsG1338"><text id="SvgjsText1339" font-family="微软雅黑" text-anchor="middle" font-size="15px" width="120px" fill="#323232" font-weight="400" align="middle" anchor="middle" family="微软雅黑" size="15px" weight="400" font-style="" opacity="1" y="9.75" transform="rotate(0)"><tspan id="SvgjsTspan1340" dy="18" x="70"><tspan id="SvgjsTspan1341" style="text-decoration:;">Vue Cli</tspan></tspan></text></g></g><g id="SvgjsG1342"><path id="SvgjsPath1343" d="M510 805.3333740234375L602 805.3333740234375L602 805.3333740234375L694 805.3333740234375" stroke="#323232" stroke-width="2" fill="none" marker-end="url(#SvgjsMarker1344)"></path></g><g id="SvgjsG1346"><path id="SvgjsPath1347" d="M439.9999999999998 826.8333740234375L439.9999999999998 843.3333740234375L439.9999999999998 843.3333740234375L439.9999999999998 856.8333740234375" stroke="#323232" stroke-width="2" fill="none" marker-end="url(#SvgjsMarker1348)"></path></g><g id="SvgjsG1350"><path id="SvgjsPath1351" d="M443.38989789857646 532.7307981965821L443.38989789857646 578.8654194433431L443.38989789857646 578.8654194433431L443.38989789857646 625.000040690104" stroke-dasharray="10,5,3,5" stroke="#323232" stroke-width="2" fill="none" marker-end="url(#SvgjsMarker1352)"></path></g><g id="SvgjsG1354"><path id="SvgjsPath1355" d="M507.9999999999999 812.3333740234373C 586.9450441763129 812.3333740234373 615.054955823687 878.3333740234375 694 878.3333740234375" stroke="#323232" stroke-width="2" fill="none" marker-end="url(#SvgjsMarker1356)"></path></g><g id="SvgjsG1358"><path id="SvgjsPath1359" d="M510 797.3333740234375C 588.1915596468059 797.3333740234375 615.8084403531941 731.3333740234375 694 731.3333740234375" stroke="#323232" stroke-width="2" fill="none" marker-end="url(#SvgjsMarker1360)"></path></g><g id="SvgjsG1362" transform="translate(370,643.8006450845712)"><path id="SvgjsPath1363" d="M 0 4Q 0 0 4 0L 136 0Q 140 0 140 4L 140 39Q 140 43 136 43L 4 43Q 0 43 0 39Z" stroke="rgba(50,50,50,1)" stroke-width="2" fill-opacity="1" fill="#99ccff"></path><g id="SvgjsG1364"><text id="SvgjsText1365" font-family="微软雅黑" text-anchor="middle" font-size="15px" width="120px" fill="#323232" font-weight="400" align="middle" anchor="middle" family="微软雅黑" size="15px" weight="400" font-style="" opacity="1" y="9.75" transform="rotate(0)"><tspan id="SvgjsTspan1366" dy="18" x="70"><tspan id="SvgjsTspan1367" style="text-decoration:;">Node JS</tspan></tspan></text></g></g><g id="SvgjsG1368" transform="translate(1283.5,768.1325662197481)"><path id="SvgjsPath1369" d="M 0 0L 76 0L 76 76L 0 76Z" stroke="none" fill="url(#SvgjsPattern1370)"></path><g id="SvgjsG1372"><text id="SvgjsText1373" font-family="微软雅黑" text-anchor="middle" font-size="13px" width="116px" fill="#323232" font-weight="400" align="middle" anchor="middle" family="微软雅黑" size="13px" weight="400" font-style="" opacity="1" y="81.05" transform="rotate(0)"><tspan id="SvgjsTspan1374" dy="16" x="38"><tspan id="SvgjsTspan1375" style="text-decoration:;">文件存储</tspan></tspan></text></g></g><g id="SvgjsG1376" transform="translate(1433.4999999999995,765.9598791293662)"><path id="SvgjsPath1377" d="M 0 0L 76 0L 76 76L 0 76Z" stroke="none" fill="url(#SvgjsPattern1378)"></path><g id="SvgjsG1380"><text id="SvgjsText1381" font-family="微软雅黑" text-anchor="middle" font-size="13px" width="116px" fill="#323232" font-weight="400" align="middle" anchor="middle" family="微软雅黑" size="13px" weight="400" font-style="" opacity="1" y="81.05" transform="rotate(0)"><tspan id="SvgjsTspan1382" dy="16" x="38"><tspan id="SvgjsTspan1383" style="text-decoration:;">日志存储</tspan></tspan></text></g></g><g id="SvgjsG1384"><path id="SvgjsPath1385" d="M1214.333333333333 616.6667073567708L1471.4999999999995 616.6667073567708L1471.4999999999995 765.9598791293662" stroke="#323232" stroke-width="2" fill="none" marker-end="url(#SvgjsMarker1386)"></path><rect id="SvgjsRect1388" width="78" height="16" x="1378.5632525529638" y="608.6667073567708" fill="#ffffff"></rect><text id="SvgjsText1389" font-family="微软雅黑" text-anchor="middle" font-size="13px" width="78px" fill="#323232" font-weight="400" align="top" anchor="middle" family="微软雅黑" size="13px" weight="400" font-style="" opacity="1" y="606.7167073567707" transform="rotate(0)"><tspan id="SvgjsTspan1390" dy="16" x="1417.5632525529638"><tspan id="SvgjsTspan1391" style="text-decoration:;">系统操作日志</tspan></tspan></text></g><g id="SvgjsG1392"><path id="SvgjsPath1393" d="M1213.9999999999998 662.3333740234374L1321.5 662.3333740234374L1321.5 768.1325662197481" stroke="#323232" stroke-width="2" fill="none" marker-end="url(#SvgjsMarker1394)"></path><rect id="SvgjsRect1396" width="91" height="16" x="1275.1495960981554" y="654.3333740234374" fill="#ffffff"></rect><text id="SvgjsText1397" font-family="微软雅黑" text-anchor="middle" font-size="13px" width="91px" fill="#323232" font-weight="400" align="top" anchor="middle" family="微软雅黑" size="13px" weight="400" font-style="" opacity="1" y="652.3833740234373" transform="rotate(0)"><tspan id="SvgjsTspan1398" dy="16" x="1320.6495960981554"><tspan id="SvgjsTspan1399" style="text-decoration:;">上传附件、图片</tspan></tspan></text></g></svg>